<?xml version="1.0" encoding="UTF-8"?>
<svg width="218px" height="272px" viewBox="0 0 218 272" version="1.1" xmlns="http://www.w3.org/2000/svg" xmlns:xlink="http://www.w3.org/1999/xlink">
    <!-- Generator: Sketch 60.1 (88133) - https://sketch.com -->
    <title>Group 4</title>
    <desc>Created with Sketch.</desc>
    <g id="Page-1" stroke="none" stroke-width="1" fill="none" fill-rule="evenodd">
        <g id="Artboard" transform="translate(-484.000000, -258.000000)">
            <g id="Group-4" transform="translate(484.000000, 258.000000)">
                <circle id="Oval" fill="#1BD741" cx="109" cy="109" r="109"></circle>
                <g id="whatsapp" transform="translate(59.000000, 54.000000)" fill="#FFFFFF" fill-rule="nonzero">
                    <g id="Group">
                        <path d="M0.15591875,100.813781 L7.20161562,75.7897687 C2.67081875,68.0926219 0.285325,59.334975 0.285325,50.3384 C0.285325,22.6375719 22.8215812,0.101315625 50.5224094,0.101315625 C78.2232375,0.101315625 100.759178,22.6375719 100.759178,50.3384 C100.759178,78.0392281 78.2232375,100.575484 50.5224094,100.575484 C41.8910125,100.575484 33.4392062,98.3661094 25.9623656,94.1708219 L0.15591875,100.813781 Z M27.2816781,85.0312687 L28.8194031,85.9702531 C35.3383219,89.9499687 42.8432531,92.0536094 50.5224094,92.0536094 C73.5242125,92.0536094 92.2373031,73.3402031 92.2373031,50.3384 C92.2373031,27.3365969 73.5242125,8.62319062 50.5224094,8.62319062 C27.5206062,8.62319062 8.8072,27.3365969 8.8072,50.3384 C8.8072,58.3530656 11.0850656,66.1360625 15.3939781,72.8459344 L16.4295437,74.4584625 L12.3721844,88.8692687 L27.2816781,85.0312687 Z" id="Shape"></path>
                        <path d="M36.4101844,26.9565844 L33.1504094,26.7788875 C32.1265219,26.7230219 31.1222031,27.0651594 30.3482906,27.7374406 C28.7679562,29.1097781 26.2410625,31.7629219 25.4649406,35.2202781 C24.3075437,40.3753812 26.0961906,46.6878812 30.7254625,53.0003812 C35.3547344,59.3128812 43.9817125,69.4128812 59.2368156,73.7265281 C64.152675,75.1165406 68.0197125,74.17945 71.0033156,72.2708656 C73.3664,70.7593375 74.9953406,68.3331281 75.5824031,65.5903469 L76.1028687,63.1594031 C76.2682562,62.3867531 75.8759344,61.6027406 75.1582031,61.2719656 L64.1413125,56.193875 C63.4261062,55.8643625 62.5780219,56.072675 62.0970094,56.6960344 L57.772,62.3027969 C57.4453281,62.7263656 56.8860406,62.8942781 56.3810406,62.7168969 C53.4192156,61.6759656 43.4978594,57.5207625 38.0539594,47.0344375 C37.8178719,46.5796219 37.8765781,46.0275937 38.2114562,45.6396906 L42.3448812,40.8579719 C42.7671875,40.3697 42.8738687,39.6832156 42.6201062,39.0898406 L37.8712125,27.979525 C37.6183969,27.3880437 37.05185,26.9916187 36.4101844,26.9565844 Z" id="Path"></path>
                    </g>
                </g>
                <text id="WHATSAPP" font-family="Geomanist-Book, Geomanist" font-size="30" font-weight="300" fill="#707070">
                    <tspan x="29.595" y="271">WHATSAPP</tspan>
                </text>
            </g>
        </g>
    </g>
</svg>